#!OML:ASF H:\ManfredETheater\Project 1\Capture day 1\Session 1\subject.ASF
:FULLY-SPECIFIED
:DEGREES
936
root 0.828917 17.8246 -4.11686 -3.35218 23.6896 2.72135
lowerback 7.58711 -4.88065 -4.92954
upperback -3.23034 -7.04231 0.203926
thorax -7.02978 -3.22112 3.87701
lowerneck -13.9569 -3.04836 -3.39213
upperneck 26.1764 -3.5656 0.427462
head 10.8027 -1.90646 0.255719
rclavicle 8.28435e-014 6.75868e-015
rhumerus -58.8794 -11.9096 -33.3856
rradius 41.8522
rwrist 1.55544
rhand -11.2928 -11.9154
rfingers 7.12502
rthumb 14.7384 -41.3714
lclavicle 8.28435e-014 6.75868e-015
lhumerus -27.3906 10.3256 59.0598
lradius 66.7421
lwrist -7.14228
lhand -20.3355 1.65529
lfingers 7.12502
lthumb 6.01593 31.5499
rfemur -3.04218 -9.64031 26.2804
rtibia 29.1055
rfoot -19.511 -10.9452
rtoes 24.6055
lfemur -53.242 1.33573 2.25134
ltibia 91.3996
lfoot 13.2274 -0.373726
ltoes 12.3206
937
root 0.828149 17.8257 -4.11792 -3.52611 23.6657 2.69447
lowerback 7.6938 -4.82374 -4.83149
upperback -3.13311 -6.95801 0.208778
thorax -7.00524 -3.18655 3.82424
lowerneck -13.9866 -3.09797 -3.45959
upperneck 26.0878 -3.61216 0.412084
head 10.778 -1.93577 0.255379
rclavicle 1.99779e-014 -3.37934e-015
rhumerus -58.839 -11.9214 -33.4451
rradius 41.7274
rwrist 1.45549
rhand -11.1885 -11.9172
rfingers 7.12502
rthumb 14.8389 -41.3658
lclavicle 1.99779e-014 -3.37934e-015
lhumerus -27.2759 9.98563 59.3937
lradius 66.825
lwrist -7.29803
lhand -20.2893 1.50701
lfingers 7.12502
lthumb 6.06056 31.4003
rfemur -2.82018 -9.78738 26.2481
rtibia 29.0198
rfoot -19.466 -10.8076
rtoes 24.5579
lfemur -53.7016 1.73059 2.25997
ltibia 91.6269
lfoot 13.0534 -0.337195
ltoes 12.4852
938
root 0.82856 17.8266 -4.11999 -3.69832 23.6043 2.67414
lowerback 7.79562 -4.75433 -4.72694
upperback -3.02992 -6.85571 0.213243
thorax -6.9737 -3.14375 3.76433
lowerneck -14.0069 -3.14808 -3.5291
upperneck 25.9845 -3.66026 0.400756
head 10.7463 -1.96547 0.256894
rclavicle 6.37602e-014 2.10712e-014
rhumerus -58.7311 -11.9404 -33.5532
rradius 41.5981
rwrist 1.3823
rhand -11.0869 -11.9232
rfingers 7.12502
rthumb 14.9367 -41.3646
lclavicle 6.37602e-014 2.10712e-014
lhumerus -27.2151 9.68418 59.6883
lradius 66.921
lwrist -7.39129
lhand -20.2532 1.37787
lfingers 7.12502
lthumb 6.09536 31.2702
rfemur -2.60616 -9.89421 26.2115
rtibia 28.9474
rfoot -19.4237 -10.6885
rtoes 24.517
lfemur -54.211 2.1445 2.20259
ltibia 91.9066
lfoot 12.8055 -0.30685
ltoes 12.4901
939
root 0.830043 17.8273 -4.12304 -3.87237 23.512 2.65703
lowerback 7.89599 -4.67551 -4.61389
upperback -2.92079 -6.73951 0.217617
thorax -6.93688 -3.0947 3.69728
lowerneck -14.0164 -3.19761 -3.59924
upperneck 25.8683 -3.70869 0.393045
head 10.7078 -1.99492 0.260054
rclavicle -2.25621e-014 1.27222e-014
rhumerus -58.5542 -11.9721 -33.7063
rradius 41.4627
rwrist 1.33663
rhand -10.9948 -11.9356
rfingers 7.12502
rthumb 15.0255 -41.3704
lclavicle -2.25621e-014 1.27222e-014
lhumerus -27.2094 9.42148 59.9423
lradius 67.0297
lwrist -7.42589
lhand -20.2332 1.26949
lfingers 7.12502
lthumb 6.1147 31.1612
rfemur -2.39744 -9.95596 26.1762
rtibia 28.8867
rfoot -19.383 -10.5982
rtoes 24.4835
lfemur -54.7693 2.57184 2.08052
ltibia 92.2321
lfoot 12.4984 -0.294673
ltoes 12.3587
940
root 0.83252 17.8277 -4.127 -4.05176 23.3937 2.63869
lowerback 7.99779 -4.58973 -4.48924
upperback -2.80623 -6.61245 0.222802
thorax -6.89683 -3.04089 3.62296
lowerneck -14.0145 -3.24577 -3.66845
upperneck 25.742 -3.75625 0.386931
head 10.6635 -2.02366 0.264033
rclavicle 4.94974e-014 -9.93923e-015
rhumerus -58.3089 -12.0198 -33.9004
rradius 41.3213
rwrist 1.31471
rhand -10.9196 -11.9578
rfingers 7.12502
rthumb 15.0979 -41.3871
lclavicle 4.94974e-014 -9.93923e-015
lhumerus -27.2586 9.19791 60.1555
lradius 67.1478
lwrist -7.41175
lhand -20.2312 1.18125
lfingers 7.12502
lthumb 6.11661 31.073
rfemur -2.19078 -9.97277 26.1475
rtibia 28.8349
rfoot -19.3424 -10.5398
rtoes 24.4569
lfemur -55.3753 3.00815 1.89658
ltibia 92.5954
lfoot 12.1537 -0.314165
ltoes 12.1336
941
root 0.835934 17.828 -4.13178 -4.23972 23.2538 2.61425
lowerback 8.10296 -4.49873 -4.34943
upperback -2.68699 -6.47653 0.229973
thorax -6.85542 -2.98331 3.54106
lowerneck -14.0005 -3.2922 -3.73559
upperneck 25.6091 -3.80224 0.380334
head 10.6144 -2.05154 0.267984
rclavicle -2.83765e-014 -9.54166e-015
rhumerus -57.9981 -12.084 -34.1326
rradius 41.1758
rwrist 1.3084
rhand -10.8693 -11.9922
rfingers 7.12502
rthumb 15.1464 -41.4179
lclavicle -2.83765e-014 -9.54166e-015
lhumerus -27.3604 9.01367 60.3286
lradius 67.2698
lwrist -7.3623
lhand -20.2462 1.11064
lfingers 7.12502
lthumb 6.10213 31.0028
rfemur -1.98266 -9.9491 26.1296
rtibia 28.788
rfoot -19.3005 -10.5107
rtoes 24.4363
lfemur -56.0273 3.44985 1.65444
ltibia 92.9872
lfoot 11.7976 -0.378279
ltoes 11.8639
942
root 0.840251 17.828 -4.13725 -4.43837 23.0953 2.57955
lowerback 8.21215 -4.4037 -4.19129
upperback -2.56414 -6.33293 0.240255
thorax -6.81412 -2.92253 3.45122
lowerneck -13.9738 -3.33694 -3.80018
upperneck 25.4731 -3.84647 0.37168
head 10.5618 -2.07861 0.271289
rclavicle 6.77359e-014 7.95139e-015
rhumerus -57.6272 -12.1623 -34.4006
rradius 41.0304
rwrist 1.30631
rhand -10.8501 -12.0422
rfingers 7.12502
rthumb 15.1648 -41.4665
lclavicle 6.77359e-014 7.95139e-015
lhumerus -27.511 8.869 60.4635
lradius 67.3883
lwrist -7.29255
lhand -20.2738 1.0539
lfingers 7.12502
lthumb 6.07553 30.9468
rfemur -1.77016 -9.89249 26.1252
rtibia 28.7425
rfoot -19.256 -10.5039
rtoes 24.4207
lfemur -56.7229 3.8936 1.35772
ltibia 93.3969
lfoot 11.4573 -0.496959
ltoes 11.5961
943
root 0.845453 17.8277 -4.14327 -4.6486 22.9212 2.53213
lowerback 8.32497 -4.3052 -4.0131
upperback -2.43865 -6.18215 0.254462
thorax -6.77364 -2.85878 3.35332
lowerneck -13.9346 -3.38048 -3.86176
upperneck 25.3377 -3.88931 0.359019
head 10.5068 -2.10523 0.273112
rclavicle 1.39149e-014 1.15295e-014
rhumerus -57.2035 -12.2502 -34.7029
rradius 40.8908
rwrist 1.29657
rhand -10.8663 -12.1089
rfingers 7.12502
rthumb 15.1493 -41.5344
lclavicle 1.39149e-014 1.15295e-014
lhumerus -27.7046 8.76432 60.5631
lradius 67.4951
lwrist -7.21673
lhand -20.3081 1.00773
lfingers 7.12502
lthumb 6.0424 30.9016
rfemur -1.55104 -9.81358 26.1343
rtibia 28.6953
rfoot -19.208 -10.5084
rtoes 24.4092
lfemur -57.4589 4.33567 1.00898
ltibia 93.8125
lfoot 11.1574 -0.676571
ltoes 11.3648
944
root 0.85152 17.8273 -4.14968 -4.86978 22.7332 2.4714
lowerback 8.44027 -4.20326 -3.81466
upperback -2.31174 -6.02411 0.272946
thorax -6.73444 -2.79196 3.2475
lowerneck -13.8829 -3.42365 -3.92034
upperneck 25.2061 -3.9316 0.341069
head 10.4508 -2.13196 0.272867
rclavicle 4.48259e-014 -4.37326e-015
rhumerus -56.7361 -12.3411 -35.0389
rradius 40.764
rwrist 1.26801
rhand -10.9193 -12.1922
rfingers 7.12502
rthumb 15.0982 -41.6216
lclavicle 4.48259e-014 -4.37326e-015
lhumerus -27.9344 8.69954 60.6311
lradius 67.5816
lwrist -7.14698
lhand -20.3447 0.969906
lfingers 7.12502
lthumb 6.007 30.8647
rfemur -1.32442 -9.72376 26.1547
rtibia 28.6446
rfoot -19.1558 -10.512
rtoes 24.4008
lfemur -58.2314 4.77205 0.609844
ltibia 94.2209
lfoot 10.9178 -0.920291
ltoes 11.1899
945
root 0.85842 17.8267 -4.15635 -5.10042 22.5328 2.3977
lowerback 8.55681 -4.09767 -3.5966
upperback -2.18465 -5.85852 0.295889
thorax -6.69691 -2.72182 3.13413
lowerneck -13.8192 -3.46737 -3.97699
upperneck 25.0809 -3.97455 0.318161
head 10.3948 -2.1594 0.270689
rclavicle 5.46658e-014 1.98785e-015
rhumerus -56.2341 -12.4281 -35.4072
rradius 40.6565
rwrist 1.21339
rhand -11.0081 -12.2885
rfingers 7.12502
rthumb 15.0127 -41.7242
lclavicle 5.46658e-014 1.98785e-015
lhumerus -28.1941 8.67361 60.6711
lradius 67.6412
lwrist -7.09143
lhand -20.3785 0.93894
lfingers 7.12502
lthumb 5.97441 30.8347
rfemur -1.09078 -9.63403 26.1834
rtibia 28.5899
rfoot -19.0996 -10.5031
rtoes 24.395
lfemur -59.036 5.19857 0.162156
ltibia 94.6084
lfoot 10.7517 -1.22933
ltoes 11.0778
946
root 0.866102 17.8259 -4.16318 -5.33763 22.3212 2.313
lowerback 8.67299 -3.98807 -3.36105
upperback -2.05876 -5.68509 0.32313
thorax -6.66125 -2.6481 3.01401
lowerneck -13.7441 -3.5125 -4.03292
upperneck 24.9643 -4.01916 0.290789
head 10.3398 -2.18809 0.266804
rclavicle -1.61513e-014 3.57812e-015
rhumerus -55.7057 -12.5053 -35.8062
rradius 40.5732
rwrist 1.13083
rhand -11.1286 -12.3922
rfingers 7.12502
rthumb 14.8966 -41.8366
lclavicle -1.61513e-014 3.57812e-015
lhumerus -28.4776 8.68522 60.6863
lradius 67.6684
lwrist -7.05445
lhand -20.4063 0.913921
lfingers 7.12502
lthumb 5.94758 30.8104
rfemur -0.852122 -9.55393 26.2163
rtibia 28.5314
rfoot -19.0392 -10.4714
rtoes 24.3911
lfemur -59.8678 5.61085 -0.332867
ltibia 94.9608
lfoot 10.6645 -1.60469
ltoes 11.0209
